<?xml version="1.0"?>
<svg xmlns="http://www.w3.org/2000/svg" width="400" height="120" viewBox="0 0 400 120" fill="none">
<path d="M139.09 34.8537C151.937 34.8537 160.289 41.9966 160.289 53.4691C160.289 61.8685 155.378 68.11 147.678 70.7733L162.773 96.1492H151.576L137.494 72.0708H121.941V96.1492H112.298V34.8537H139.09ZM121.927 43.3897V63.6303H138.632C146.29 63.6303 150.244 59.4238 150.244 53.4691C150.244 47.3777 146.304 43.3897 138.632 43.3897H121.927Z" fill="black"/>
<path d="M187.303 51.8848C200.15 51.8848 208.503 61.2812 208.503 72.8902C208.503 74.2423 208.405 75.6491 208.142 77.0422H173.956C174.372 83.5432 180.019 88.6512 187.636 88.6512C193.144 88.6512 197.542 86.343 200.844 81.2487L207.545 86.0425C203.466 93.2674 195.433 97.0643 187.636 97.0643C174.33 97.0643 164.549 87.3946 164.549 74.5291C164.549 61.5953 173.956 51.8848 187.303 51.8848ZM199.276 70.3499C198.721 64.2586 193.546 59.9564 187.206 59.9564C180.463 59.9564 175.315 64.2449 174.178 70.3499H199.276Z" fill="black"/>
<path d="M216.938 96.1492V52.7862H226.067V58.2492C227.538 56.0367 231.714 51.8848 239.609 51.8848C251.721 51.8848 258.103 59.2872 258.103 69.8173V96.1492H249.015V71.7157C249.015 64.5317 245.02 60.3798 238.18 60.3798C231.478 60.3798 226.026 64.5317 226.026 71.7157V96.1492H216.938Z" fill="black"/>
<path d="M287.711 51.8848C295.189 51.8848 300.142 54.589 303.403 58.6999V32.5455H312.49V96.1492H303.403V90.2354C300.142 94.3464 295.189 97.0506 287.711 97.0506C275.182 97.0506 265.595 87.5585 265.595 74.2423C265.595 60.9125 275.182 51.8848 287.711 51.8848ZM274.669 74.2423C274.669 82.2321 280.316 89.0062 288.807 89.0062C297.298 89.0062 303.347 82.2321 303.347 74.2423C303.347 66.2526 297.242 59.9291 288.807 59.9291C280.316 59.9155 274.669 66.2389 274.669 74.2423Z" fill="black"/>
<path d="M342.944 51.8848C355.792 51.8848 364.144 61.2812 364.144 72.8902C364.144 74.2423 364.047 75.6491 363.783 77.0422H329.597C330.013 83.5432 335.66 88.6512 343.277 88.6512C348.785 88.6512 353.183 86.343 356.486 81.2487L363.187 86.0425C359.108 93.2674 351.075 97.0643 343.277 97.0643C329.972 97.0643 320.19 87.3946 320.19 74.5291C320.177 61.5953 329.583 51.8848 342.944 51.8848ZM354.918 70.3499C354.363 64.2586 349.188 59.9564 342.847 59.9564C336.104 59.9564 330.957 64.2449 329.819 70.3499H354.918Z" fill="black"/>
<path d="M372.926 96.1492V52.7862H382.056V58.6999C384.539 53.9607 388.715 51.8848 393.53 51.8848C396.971 51.8848 399.593 52.9637 399.593 52.9637L398.635 61.1856C398.136 61.0081 396.152 60.1886 393.266 60.1886C388.396 60.1886 382.07 62.7153 382.07 72.5215V96.1492H372.926Z" fill="black"/>
<path d="M57.0094 22.5208C47.2419 22.0701 39.0283 28.9945 37.627 38.1178C37.5715 38.5412 37.4883 38.951 37.4189 39.3607C35.2406 50.7239 25.0986 59.3282 12.9169 59.3282C8.5743 59.3282 4.49526 58.2356 0.943451 56.3235C0.513348 56.0913 0 56.3918 0 56.8698V59.3145V96.1492H37.405V68.5334C37.405 63.4528 41.5951 59.3282 46.7563 59.3282H56.1075C66.6936 59.3282 75.2124 50.6829 74.7962 40.1665C74.4216 30.7017 66.6242 22.9715 57.0094 22.5208Z" fill="black"/>
</svg>
